<svg id="Layer_1" data-name="Layer 1" xmlns="http://www.w3.org/2000/svg" xmlns:xlink="http://www.w3.org/1999/xlink" viewBox="0 0 566.03 99.2"><defs><style>.cls-1{fill:#2977C9;}.cls-2{clip-path:url(#clip-path);}.cls-3{fill:#F5F5F5;}.cls-4{fill:#2977C9;}</style><clipPath id="clip-path" transform="translate(-216.99 -36.4)"><rect class="cls-1" x="216.99" y="36.4" width="566.03" height="99.2"/></clipPath></defs><g class="cls-2"><path class="cls-3" d="M686.72,97.24v37h36.44v-37Z" transform="translate(-216.99 -36.4)"/><path class="cls-3" d="M783,113.11V36.4H749.18v76.71Z" transform="translate(-216.99 -36.4)"/><path class="cls-3" d="M707.54,70.79H783V36.4H707.54Z" transform="translate(-216.99 -36.4)"/><path class="cls-4" d="M217,53.84h16.39L257.8,113l24.54-59.18h15.92l-33,80.19H250Z" transform="translate(-216.99 -36.4)"/><path class="cls-4" d="M318.11,68V86.81H356.8v14.13H318.11v19h39.51V134h-55V53.84h55V68Z" transform="translate(-216.99 -36.4)"/><path class="cls-4" d="M434.13,78.48A27.11,27.11,0,0,1,432.47,88a20.07,20.07,0,0,1-5,7.85A24.06,24.06,0,0,1,419,101.3a33.78,33.78,0,0,1-12,1.93H383.76V134H368.3V53.84H407a32.2,32.2,0,0,1,12,2,22.68,22.68,0,0,1,8.49,5.32,20,20,0,0,1,5,7.85A26.76,26.76,0,0,1,434.13,78.48ZM383.76,89.11h22.17q6,0,9.32-2.9a9.63,9.63,0,0,0,3.42-7.73,9.27,9.27,0,0,0-3.42-7.61Q412,68,405.93,68H383.76Z" transform="translate(-216.99 -36.4)"/><path class="cls-4" d="M508,78.48a28.65,28.65,0,0,1-1.18,8.21,24.09,24.09,0,0,1-3.54,7.12,22,22,0,0,1-6,5.44,24.87,24.87,0,0,1-8.61,3.26L512.09,134H492.86L470,103.23H457.59V134H442.14V53.84h38.69a32.15,32.15,0,0,1,12,2,22.68,22.68,0,0,1,8.49,5.32,20,20,0,0,1,5,7.85A27,27,0,0,1,508,78.48ZM457.59,89.11h22.18q6,0,9.32-2.9a9.63,9.63,0,0,0,3.42-7.73,9.27,9.27,0,0,0-3.42-7.61q-3.31-2.9-9.32-2.9H457.59Z" transform="translate(-216.99 -36.4)"/><path class="cls-4" d="M555.07,135.6a40.76,40.76,0,0,1-16.52-3.26,39.37,39.37,0,0,1-21.23-22.22,44.3,44.3,0,0,1-3-16.18,43.71,43.71,0,0,1,3-16.19,39.37,39.37,0,0,1,21.23-22.22,43.16,43.16,0,0,1,32.91,0,39.08,39.08,0,0,1,21.35,22.22,43.71,43.71,0,0,1,3,16.19,44.3,44.3,0,0,1-3,16.18,39.65,39.65,0,0,1-8.37,13.28,39.09,39.09,0,0,1-13,8.94A40.41,40.41,0,0,1,555.07,135.6Zm0-14.13a23.16,23.16,0,0,0,10-2.17,23.77,23.77,0,0,0,8-5.92,26.85,26.85,0,0,0,5.31-8.7,30.49,30.49,0,0,0,1.89-10.74,29.88,29.88,0,0,0-1.89-10.75,25.35,25.35,0,0,0-5.31-8.7,23.74,23.74,0,0,0-8-5.91,23.17,23.17,0,0,0-10-2.18,23.46,23.46,0,0,0-10.15,2.18,25.42,25.42,0,0,0-8,5.91,26.56,26.56,0,0,0-5.19,8.7,29.88,29.88,0,0,0-1.89,10.75,30.49,30.49,0,0,0,1.89,10.74,28.21,28.21,0,0,0,5.19,8.7,25.45,25.45,0,0,0,8,5.92A23.45,23.45,0,0,0,555.07,121.47Z" transform="translate(-216.99 -36.4)"/><path class="cls-4" d="M619.88,68V86.81h38.69v14.13H619.88V134H604.43V53.84h55V68Z" transform="translate(-216.99 -36.4)"/></g></svg>