<?xml version="1.0" encoding="utf-8"?>
<!-- Generator: Adobe Illustrator 27.2.0, SVG Export Plug-In . SVG Version: 6.00 Build 0)  -->
<svg version="1.1" id="Layer_1" xmlns="http://www.w3.org/2000/svg" xmlns:xlink="http://www.w3.org/1999/xlink" x="0px" y="0px"
	 viewBox="0 0 34 34" style="enable-background:new 0 0 34 34;" xml:space="preserve">
<style type="text/css">
	.st0{fill:#2967B1;}
	.st1{fill:#FFFFFF;}
</style>
<g>
	<path class="st0" d="M34,2.5v29c0,1.4-1.1,2.5-2.5,2.5h-29C1.1,34,0,32.9,0,31.5v-29C0,1.1,1.1,0,2.5,0h29C32.9,0,34,1.1,34,2.5z"
		/>
</g>
<g>
	<path class="st1" d="M10.2,21.5H9v6.4H3.4v-21h6.7c4.3,0,7.3,2.3,7.3,7.3C17.4,19.2,14.5,21.5,10.2,21.5z M10,12.1H9v4.1h1
		c1.1,0,1.8-0.5,1.8-2.1C11.8,12.6,11.1,12.1,10,12.1z"/>
	<path class="st1" d="M18.6,6.9h5.6v15.5h6.7v5.5H18.6V6.9z"/>
</g>
</svg>
